<svg xmlns="http://www.w3.org/2000/svg" width="1440" height="960" viewBox="0 0 1440 960" fill="none">
  <rect width="1440" height="960" fill="#E9DED0"/>
  <rect x="40" y="28" width="1360" height="904" rx="34" fill="#17232C"/>
  <rect x="72" y="60" width="1296" height="840" rx="28" fill="#F7F0E8"/>
  <rect x="72" y="60" width="1296" height="92" rx="28" fill="#1D2D39"/>
  <text x="112" y="116" fill="#F8F1E7" font-size="30" font-family="Georgia, serif">GigaStudy</text>
  <text x="1025" y="116" fill="#DCCBBC" font-size="18" font-family="Arial, sans-serif">Product</text>
  <text x="1115" y="116" fill="#DCCBBC" font-size="18" font-family="Arial, sans-serif">Studio</text>
  <text x="1195" y="116" fill="#DCCBBC" font-size="18" font-family="Arial, sans-serif">Docs</text>
  <text x="1270" y="116" fill="#DCCBBC" font-size="18" font-family="Arial, sans-serif">Sign In</text>
  <text x="124" y="244" fill="#B5643A" font-size="20" font-family="Arial, sans-serif">GigaStudy Vocal Studio</text>
  <text x="124" y="322" fill="#1B2A34" font-size="56" font-family="Georgia, serif">Record the take.</text>
  <text x="124" y="388" fill="#1B2A34" font-size="56" font-family="Georgia, serif">Review the pitch.</text>
  <text x="124" y="454" fill="#1B2A34" font-size="56" font-family="Georgia, serif">Build the harmony.</text>
  <text x="124" y="522" fill="#53636F" font-size="24" font-family="Arial, sans-serif">Guided vocal recording, note-level feedback, editable melody draft extraction,</text>
  <text x="124" y="558" fill="#53636F" font-size="24" font-family="Arial, sans-serif">and arrangement export from one web studio.</text>
  <rect x="124" y="618" width="260" height="58" rx="29" fill="#B5643A"/>
  <text x="168" y="655" fill="#FFF8F1" font-size="20" font-family="Arial, sans-serif">Start a Practice Project</text>
  <rect x="404" y="618" width="214" height="58" rx="29" fill="#F4E8DB" stroke="#D3B69D"/>
  <text x="455" y="655" fill="#1E2D38" font-size="20" font-family="Arial, sans-serif">Open Demo Studio</text>
  <rect x="860" y="214" width="420" height="346" rx="30" fill="#243542"/>
  <rect x="896" y="258" width="352" height="40" rx="20" fill="#314957"/>
  <rect x="896" y="328" width="352" height="134" rx="22" fill="#F6F1EA"/>
  <path d="M920 402C945 370 978 370 1002 391C1025 412 1054 417 1082 392C1110 367 1143 370 1166 393C1188 415 1215 421 1238 390" stroke="#B5643A" stroke-width="8" stroke-linecap="round"/>
  <path d="M920 430C950 445 980 438 1008 420C1035 403 1062 398 1090 411C1117 425 1148 424 1178 410C1206 397 1228 394 1240 401" stroke="#7DA9B8" stroke-width="5" stroke-linecap="round"/>
  <rect x="124" y="750" width="1212" height="92" rx="24" fill="#F1E5D8"/>
  <text x="166" y="804" fill="#1E2D38" font-size="22" font-family="Arial, sans-serif">Guided recording</text>
  <text x="452" y="804" fill="#1E2D38" font-size="22" font-family="Arial, sans-serif">Note-level review</text>
  <text x="764" y="804" fill="#1E2D38" font-size="22" font-family="Arial, sans-serif">Arrangement candidates</text>
  <text x="1082" y="804" fill="#1E2D38" font-size="22" font-family="Arial, sans-serif">Export package</text>
</svg>
