<svg xmlns="http://www.w3.org/2000/svg" width="1440" height="960" viewBox="0 0 1440 960" fill="none">
  <rect width="1440" height="960" fill="#E9DED0"/>
  <rect x="36" y="28" width="1368" height="904" rx="34" fill="#16232C"/>
  <rect x="68" y="60" width="1304" height="840" rx="30" fill="#F7F0E8"/>
  <rect x="96" y="88" width="1248" height="84" rx="24" fill="#1D2D39"/>
  <text x="126" y="137" fill="#FFF8F1" font-size="30" font-family="Georgia, serif">Ops Overview</text>
  <text x="1020" y="137" fill="#D9CDBE" font-size="16" font-family="Arial, sans-serif">Refresh  |  Export report  |  Last sync 09:40</text>
  <rect x="96" y="200" width="1248" height="92" rx="22" fill="#F1E5D8"/>
  <text x="126" y="254" fill="#1E2D38" font-size="19" font-family="Arial, sans-serif">Failed tracks 3</text>
  <text x="380" y="254" fill="#1E2D38" font-size="19" font-family="Arial, sans-serif">Failed analysis 1</text>
  <text x="666" y="254" fill="#1E2D38" font-size="19" font-family="Arial, sans-serif">Warning profiles 8</text>
  <text x="952" y="254" fill="#1E2D38" font-size="19" font-family="Arial, sans-serif">Browsers 4</text>
  <text x="1142" y="254" fill="#1E2D38" font-size="19" font-family="Arial, sans-serif">Native validations 2</text>
  <rect x="96" y="320" width="606" height="298" rx="26" fill="#FBF5EE"/>
  <text x="126" y="364" fill="#B5643A" font-size="16" font-family="Arial, sans-serif">Validation Runs</text>
  <text x="126" y="402" fill="#1E2D38" font-size="30" font-family="Georgia, serif">Record the browser environment clearly</text>
  <rect x="126" y="432" width="256" height="42" rx="21" fill="#FFFFFF"/>
  <rect x="398" y="432" width="274" height="42" rx="21" fill="#FFFFFF"/>
  <rect x="126" y="492" width="256" height="42" rx="21" fill="#FFFFFF"/>
  <rect x="398" y="492" width="274" height="42" rx="21" fill="#FFFFFF"/>
  <rect x="126" y="552" width="546" height="42" rx="21" fill="#FFFFFF"/>
  <rect x="126" y="566" width="170" height="46" rx="23" fill="#B5643A"/>
  <text x="165" y="596" fill="#FFF8F1" font-size="16" font-family="Arial, sans-serif">Save validation run</text>
  <rect x="738" y="320" width="606" height="298" rx="26" fill="#FBF5EE"/>
  <text x="768" y="364" fill="#B5643A" font-size="16" font-family="Arial, sans-serif">Jobs And Failures</text>
  <text x="768" y="402" fill="#1E2D38" font-size="30" font-family="Georgia, serif">Watch retries before they become support debt</text>
  <rect x="768" y="436" width="546" height="64" rx="18" fill="#FFFFFF"/>
  <rect x="768" y="516" width="546" height="64" rx="18" fill="#FFFFFF"/>
  <text x="792" y="474" fill="#1E2D38" font-size="18" font-family="Arial, sans-serif">Track 1 failed canonical processing</text>
  <text x="792" y="554" fill="#1E2D38" font-size="18" font-family="Arial, sans-serif">Job 7 failed analysis, retry available</text>
  <rect x="96" y="646" width="1248" height="206" rx="26" fill="#FCF7F2"/>
  <text x="126" y="690" fill="#B5643A" font-size="16" font-family="Arial, sans-serif">Device Matrix</text>
  <text x="126" y="728" fill="#1E2D38" font-size="30" font-family="Georgia, serif">Inspect the hardware and browser matrix without product chrome</text>
  <rect x="126" y="758" width="1188" height="58" rx="18" fill="#1F3240"/>
  <text x="154" y="794" fill="#FFF8F1" font-size="16" font-family="Arial, sans-serif">Browser   |   OS   |   secure context   |   mic permission   |   recorder MIME   |   offline audio   |   warning flags</text>
</svg>
