<svg xmlns="http://www.w3.org/2000/svg" width="1440" height="960" viewBox="0 0 1440 960" fill="none">
  <rect width="1440" height="960" fill="#E9DED0"/>
  <rect x="36" y="28" width="1368" height="904" rx="34" fill="#16232C"/>
  <rect x="68" y="60" width="1304" height="840" rx="30" fill="#F7F0E8"/>
  <rect x="96" y="88" width="1248" height="88" rx="24" fill="#1D2D39"/>
  <rect x="122" y="110" width="120" height="42" rx="21" fill="#B5643A"/>
  <rect x="256" y="110" width="120" height="42" rx="21" fill="#29404E"/>
  <rect x="390" y="110" width="120" height="42" rx="21" fill="#29404E"/>
  <text x="165" y="137" fill="#FFF8F1" font-size="16" font-family="Arial, sans-serif">Candidate A</text>
  <text x="299" y="137" fill="#D9CDBE" font-size="16" font-family="Arial, sans-serif">Candidate B</text>
  <text x="433" y="137" fill="#D9CDBE" font-size="16" font-family="Arial, sans-serif">Candidate C</text>
  <text x="760" y="137" fill="#FFF8F1" font-size="18" font-family="Arial, sans-serif">Morning Warmup</text>
  <text x="1088" y="137" fill="#D9CDBE" font-size="18" font-family="Arial, sans-serif">Preview  Play  Stop  01:24</text>
  <rect x="96" y="208" width="276" height="644" rx="26" fill="#FBF5EE"/>
  <text x="126" y="252" fill="#B5643A" font-size="16" font-family="Arial, sans-serif">Left Rail</text>
  <text x="126" y="292" fill="#1E2D38" font-size="30" font-family="Georgia, serif">Choose the harmony stack</text>
  <rect x="126" y="328" width="216" height="182" rx="20" fill="#F1E5D8"/>
  <text x="148" y="364" fill="#1E2D38" font-size="18" font-family="Arial, sans-serif">Style: Contemporary</text>
  <text x="148" y="394" fill="#1E2D38" font-size="18" font-family="Arial, sans-serif">Difficulty: Basic</text>
  <text x="148" y="424" fill="#1E2D38" font-size="18" font-family="Arial, sans-serif">Voice range: Alto</text>
  <text x="148" y="454" fill="#1E2D38" font-size="18" font-family="Arial, sans-serif">Beatbox: Pulse</text>
  <rect x="126" y="536" width="216" height="206" rx="20" fill="#FFFFFF"/>
  <text x="148" y="572" fill="#1E2D38" font-size="20" font-family="Arial, sans-serif">Candidate compare</text>
  <text x="148" y="612" fill="#1E2D38" font-size="18" font-family="Arial, sans-serif">Lead fit: 94%</text>
  <text x="148" y="642" fill="#1E2D38" font-size="18" font-family="Arial, sans-serif">Max leap: 5 semitones</text>
  <text x="148" y="672" fill="#1E2D38" font-size="18" font-family="Arial, sans-serif">Parallel alerts: 1</text>
  <text x="148" y="702" fill="#1E2D38" font-size="18" font-family="Arial, sans-serif">Beatbox hits: 12</text>
  <rect x="398" y="208" width="640" height="644" rx="26" fill="#FCF7F2"/>
  <text x="430" y="252" fill="#B5643A" font-size="16" font-family="Arial, sans-serif">Score Canvas</text>
  <text x="430" y="292" fill="#1E2D38" font-size="30" font-family="Georgia, serif">Preview the arrangement, then export the score package</text>
  <rect x="430" y="332" width="576" height="462" rx="20" fill="#FFFFFF" stroke="#E0D3C4"/>
  <line x1="458" y1="398" x2="978" y2="398" stroke="#1E2D38" stroke-width="2"/>
  <line x1="458" y1="416" x2="978" y2="416" stroke="#1E2D38" stroke-width="2"/>
  <line x1="458" y1="434" x2="978" y2="434" stroke="#1E2D38" stroke-width="2"/>
  <line x1="458" y1="452" x2="978" y2="452" stroke="#1E2D38" stroke-width="2"/>
  <line x1="458" y1="470" x2="978" y2="470" stroke="#1E2D38" stroke-width="2"/>
  <rect x="548" y="366" width="8" height="338" fill="#B5643A"/>
  <circle cx="612" cy="438" r="12" fill="#1E2D38"/>
  <circle cx="662" cy="420" r="12" fill="#1E2D38"/>
  <circle cx="712" cy="456" r="12" fill="#1E2D38"/>
  <circle cx="762" cy="438" r="12" fill="#1E2D38"/>
  <circle cx="812" cy="474" r="12" fill="#1E2D38"/>
  <rect x="1064" y="208" width="280" height="644" rx="26" fill="#FBF5EE"/>
  <text x="1094" y="252" fill="#B5643A" font-size="16" font-family="Arial, sans-serif">Right Rail</text>
  <text x="1094" y="292" fill="#1E2D38" font-size="30" font-family="Georgia, serif">Part focus and export</text>
  <rect x="1094" y="330" width="220" height="194" rx="20" fill="#F1E5D8"/>
  <text x="1116" y="368" fill="#1E2D38" font-size="18" font-family="Arial, sans-serif">Lead solo</text>
  <text x="1116" y="400" fill="#1E2D38" font-size="18" font-family="Arial, sans-serif">Alto solo</text>
  <text x="1116" y="432" fill="#1E2D38" font-size="18" font-family="Arial, sans-serif">Tenor solo</text>
  <text x="1116" y="464" fill="#1E2D38" font-size="18" font-family="Arial, sans-serif">Bass solo</text>
  <text x="1116" y="496" fill="#1E2D38" font-size="18" font-family="Arial, sans-serif">Guide mode</text>
  <rect x="1094" y="550" width="220" height="222" rx="20" fill="#FFFFFF"/>
  <text x="1116" y="588" fill="#1E2D38" font-size="18" font-family="Arial, sans-serif">Export MusicXML</text>
  <text x="1116" y="624" fill="#1E2D38" font-size="18" font-family="Arial, sans-serif">Export arrangement MIDI</text>
  <text x="1116" y="660" fill="#1E2D38" font-size="18" font-family="Arial, sans-serif">Export guide WAV</text>
</svg>
