<svg xmlns="http://www.w3.org/2000/svg" width="1440" height="1024" viewBox="0 0 1440 1024" fill="none">
  <rect width="1440" height="1024" fill="#E7DACB"/>
  <rect x="28" y="24" width="1384" height="976" rx="36" fill="#15232D"/>
  <rect x="60" y="56" width="1320" height="912" rx="30" fill="#F7F0E8"/>
  <rect x="88" y="84" width="1264" height="132" rx="28" fill="#15232D"/>
  <text x="118" y="128" fill="#B8673D" font-size="16" font-family="Arial, sans-serif">STUDIO SESSION</text>
  <text x="118" y="174" fill="#FFF8F1" font-size="40" font-family="Georgia, serif">아침 워밍업</text>
  <text x="118" y="205" fill="#E8DCCC" font-size="18" font-family="Arial, sans-serif">가이드와 take를 한 흐름으로 보고, 들으면서, 고칠 수 있는 보컬 리뷰 작업면.</text>
  <g>
    <rect x="930" y="108" width="118" height="76" rx="18" fill="#243542"/>
    <text x="964" y="136" fill="#EADFD0" font-size="13" font-family="Arial, sans-serif">템포</text>
    <text x="950" y="166" fill="#FFF8F1" font-size="17" font-family="Arial, sans-serif">92 BPM / 4/4</text>
    <rect x="1060" y="108" width="118" height="76" rx="18" fill="#243542"/>
    <text x="1096" y="136" fill="#EADFD0" font-size="13" font-family="Arial, sans-serif">조성</text>
    <text x="1090" y="166" fill="#FFF8F1" font-size="17" font-family="Arial, sans-serif">A major</text>
    <rect x="1190" y="108" width="132" height="76" rx="18" fill="#315744"/>
    <text x="1222" y="136" fill="#E5F2E9" font-size="13" font-family="Arial, sans-serif">분석</text>
    <text x="1210" y="166" fill="#FFF8F1" font-size="17" font-family="Arial, sans-serif">노트 단위</text>
  </g>
  <rect x="88" y="244" width="248" height="620" rx="28" fill="#FBF5EE"/>
  <text x="116" y="286" fill="#B8673D" font-size="15" font-family="Arial, sans-serif">SOURCE RACK</text>
  <text x="116" y="326" fill="#1D2C37" font-size="30" font-family="Georgia, serif">소스와 세션 상태</text>
  <rect x="116" y="366" width="192" height="88" rx="18" fill="#F1E5D8" stroke="#D8C0AA"/>
  <text x="136" y="400" fill="#1D2C37" font-size="18" font-family="Arial, sans-serif">guide.wav</text>
  <text x="136" y="428" fill="#5D6B76" font-size="15" font-family="Arial, sans-serif">준비됨 · 01:24 · chord-aware</text>
  <rect x="116" y="490" width="192" height="88" rx="18" fill="#F1E5D8" stroke="#B8673D"/>
  <text x="136" y="524" fill="#1D2C37" font-size="18" font-family="Arial, sans-serif">Take 2</text>
  <text x="136" y="552" fill="#5D6B76" font-size="15" font-family="Arial, sans-serif">선택됨 · pitch 88 · rhythm 91</text>
  <rect x="116" y="592" width="192" height="78" rx="18" fill="#F8F0E7"/>
  <text x="136" y="624" fill="#1D2C37" font-size="18" font-family="Arial, sans-serif">Take 1</text>
  <text x="136" y="650" fill="#5D6B76" font-size="15" font-family="Arial, sans-serif">비교용 보관</text>
  <rect x="116" y="684" width="192" height="78" rx="18" fill="#F8F0E7"/>
  <text x="136" y="716" fill="#1D2C37" font-size="18" font-family="Arial, sans-serif">Take 3</text>
  <text x="136" y="742" fill="#5D6B76" font-size="15" font-family="Arial, sans-serif">미분석</text>
  <rect x="364" y="244" width="716" height="620" rx="28" fill="#FCF7F2"/>
  <text x="394" y="286" fill="#B8673D" font-size="15" font-family="Arial, sans-serif">PREVIEW CANVAS</text>
  <text x="394" y="326" fill="#1D2C37" font-size="32" font-family="Georgia, serif">파형 · 피치 윤곽 · 목표 음</text>
  <rect x="394" y="362" width="656" height="64" rx="18" fill="#FFF8F1" stroke="#E2D4C7"/>
  <rect x="418" y="378" width="74" height="32" rx="16" fill="#B8673D"/>
  <text x="443" y="399" fill="#FFF8F1" font-size="15" font-family="Arial, sans-serif">재생</text>
  <rect x="502" y="378" width="64" height="32" rx="16" fill="#F8F0E7" stroke="#D7C0A9"/>
  <text x="523" y="399" fill="#1D2C37" font-size="15" font-family="Arial, sans-serif">정지</text>
  <rect x="394" y="444" width="656" height="240" rx="24" fill="#223542"/>
  <path d="M426 592C456 568 490 570 520 596C548 620 580 624 614 602C646 580 678 580 708 604C738 628 772 626 806 600C840 574 872 578 902 604C932 630 966 626 1008 594" stroke="#7AA8BA" stroke-width="6" stroke-linecap="round"/>
  <path d="M426 540C454 514 486 514 516 540C546 566 580 570 614 546C646 522 678 520 708 544C740 570 772 572 806 548C840 524 874 524 904 548C936 574 968 574 1008 542" stroke="#B8673D" stroke-width="10" stroke-linecap="round"/>
  <rect x="782" y="470" width="6" height="178" rx="3" fill="#F2B48C"/>
  <rect x="426" y="716" width="656" height="120" rx="22" fill="#FFF8F1" stroke="#E2D4C7"/>
  <text x="454" y="750" fill="#B8673D" font-size="15" font-family="Arial, sans-serif">TIMELINE RAIL</text>
  <text x="454" y="784" fill="#5D6B76" font-size="15" font-family="Arial, sans-serif">Guide</text>
  <rect x="544" y="768" width="474" height="26" rx="13" fill="#A5CBD8"/>
  <text x="454" y="822" fill="#5D6B76" font-size="15" font-family="Arial, sans-serif">Take 2</text>
  <rect x="544" y="806" width="474" height="26" rx="13" fill="#D99A75"/>
  <rect x="1108" y="244" width="244" height="620" rx="28" fill="#FBF5EE"/>
  <text x="1136" y="286" fill="#B8673D" font-size="15" font-family="Arial, sans-serif">INSPECTOR</text>
  <text x="1136" y="326" fill="#1D2C37" font-size="30" font-family="Georgia, serif">선택 항목 기준 피드백</text>
  <rect x="1136" y="366" width="88" height="96" rx="18" fill="#F1E5D8"/>
  <rect x="1234" y="366" width="88" height="96" rx="18" fill="#F1E5D8"/>
  <rect x="1136" y="474" width="88" height="96" rx="18" fill="#F1E5D8"/>
  <rect x="1234" y="474" width="88" height="96" rx="18" fill="#F1E5D8"/>
  <text x="1158" y="396" fill="#5D6B76" font-size="12" font-family="Arial, sans-serif">Pitch</text>
  <text x="1154" y="438" fill="#1D2C37" font-size="34" font-family="Georgia, serif">88</text>
  <text x="1250" y="396" fill="#5D6B76" font-size="12" font-family="Arial, sans-serif">Rhythm</text>
  <text x="1252" y="438" fill="#1D2C37" font-size="34" font-family="Georgia, serif">91</text>
  <text x="1152" y="504" fill="#5D6B76" font-size="12" font-family="Arial, sans-serif">Harmony</text>
  <text x="1150" y="546" fill="#1D2C37" font-size="34" font-family="Georgia, serif">79</text>
  <text x="1246" y="504" fill="#5D6B76" font-size="12" font-family="Arial, sans-serif">Conf.</text>
  <text x="1240" y="546" fill="#1D2C37" font-size="28" font-family="Georgia, serif">93%</text>
  <rect x="1136" y="588" width="186" height="104" rx="18" fill="#FFFFFF" stroke="#E2D4C7"/>
  <text x="1156" y="620" fill="#5D6B76" font-size="12" font-family="Arial, sans-serif">선택 노트</text>
  <text x="1156" y="648" fill="#1D2C37" font-size="18" font-family="Arial, sans-serif">A4 · 12번째 노트</text>
  <text x="1156" y="676" fill="#5D6B76" font-size="14" font-family="Arial, sans-serif">시작은 약간 높고 sustain는 안정적</text>
  <rect x="1136" y="708" width="186" height="122" rx="18" fill="#F8F0E7"/>
  <text x="1156" y="742" fill="#5D6B76" font-size="14" font-family="Arial, sans-serif">Attack   +24c 높음</text>
  <text x="1156" y="772" fill="#5D6B76" font-size="14" font-family="Arial, sans-serif">Sustain  +6c</text>
  <text x="1156" y="802" fill="#5D6B76" font-size="14" font-family="Arial, sans-serif">Timing   +18 ms 늦음</text>
</svg>
