<svg width="1440" height="900" viewBox="0 0 1440 900" fill="none" xmlns="http://www.w3.org/2000/svg">
  <rect width="1440" height="900" fill="#101010"/>
  <rect x="38" y="34" width="1364" height="832" rx="28" fill="#151515" stroke="#1AC4FF" stroke-opacity="0.24"/>
  <rect x="38" y="34" width="1364" height="72" rx="28" fill="#111111"/>
  <rect x="70" y="54" width="34" height="34" rx="10" fill="url(#brand)"/>
  <text x="80" y="77" fill="white" font-size="18" font-family="Segoe UI" font-weight="700">G</text>
  <text x="118" y="68" fill="#F5F5F5" font-size="22" font-family="Segoe UI" font-weight="700">GigaStudy</text>
  <text x="118" y="90" fill="#9F9F9F" font-size="13" font-family="Segoe UI">파형 다듬기</text>
  <rect x="1145" y="54" width="106" height="32" rx="16" fill="#1E1E1E" stroke="#2D2D2D"/>
  <text x="1171" y="74" fill="#CFCFCF" font-size="13" font-family="Segoe UI">선택 테이크</text>
  <rect x="1263" y="54" width="88" height="32" rx="16" fill="#1E1E1E" stroke="#2D2D2D"/>
  <text x="1289" y="74" fill="#CFCFCF" font-size="13" font-family="Segoe UI">저장 전</text>
  <rect x="38" y="106" width="216" height="760" fill="#1A1A1A"/>
  <rect x="60" y="134" width="82" height="44" rx="12" fill="#2A2A2A" stroke="#2F2F2F"/>
  <rect x="150" y="134" width="82" height="44" rx="12" fill="#232323"/>
  <text x="86" y="161" fill="#F2F2F2" font-size="15" font-family="Segoe UI">파형</text>
  <text x="176" y="161" fill="#A7A7A7" font-size="15" font-family="Segoe UI">오디오</text>
  <line x1="60" y1="194" x2="232" y2="194" stroke="#313131"/>
  <text x="60" y="232" fill="#F2F2F2" font-size="16" font-family="Segoe UI" font-weight="700">기본 작업</text>
  <rect x="60" y="248" width="172" height="42" rx="12" fill="#07222D"/>
  <rect x="60" y="248" width="4" height="42" rx="2" fill="#1AC4FF"/>
  <text x="82" y="274" fill="#1AC4FF" font-size="15" font-family="Segoe UI">구간 자르기</text>
  <text x="82" y="323" fill="#A7A7A7" font-size="15" font-family="Segoe UI">호흡 정리</text>
  <text x="82" y="371" fill="#A7A7A7" font-size="15" font-family="Segoe UI">잡음 줄이기</text>
  <text x="82" y="419" fill="#A7A7A7" font-size="15" font-family="Segoe UI">박자 다시 보기</text>
  <text x="60" y="478" fill="#F2F2F2" font-size="16" font-family="Segoe UI" font-weight="700">빠른 이동</text>
  <text x="82" y="519" fill="#A7A7A7" font-size="15" font-family="Segoe UI">선택 테이크</text>
  <text x="82" y="567" fill="#A7A7A7" font-size="15" font-family="Segoe UI">가이드 겹치기</text>
  <text x="82" y="615" fill="#A7A7A7" font-size="15" font-family="Segoe UI">내보내기</text>
  <line x1="60" y1="664" x2="232" y2="664" stroke="#313131"/>
  <rect x="60" y="688" width="80" height="30" rx="15" fill="#1E1E1E" stroke="#313131"/>
  <text x="84" y="707" fill="#CFCFCF" font-size="13" font-family="Segoe UI">리뷰 중</text>
  <rect x="278" y="138" width="160" height="44" rx="14" fill="#2A2A2A"/>
  <circle cx="305" cy="160" r="10" fill="#3A3A3A"/>
  <text x="299" y="165" fill="#F0F0F0" font-size="14" font-family="Segoe UI">×</text>
  <text x="326" y="166" fill="#F5F5F5" font-size="16" font-family="Segoe UI" font-weight="700">take-02.wav</text>
  <rect x="278" y="182" width="1090" height="430" rx="22" fill="#262626" stroke="#1AC4FF" stroke-opacity="0.38"/>
  <rect x="300" y="216" width="1046" height="334" rx="14" fill="#2C2C2C" stroke="#373737"/>
  <rect x="324" y="310" width="210" height="150" rx="20" fill="url(#fade)"/>
  <rect x="1112" y="310" width="210" height="150" rx="20" fill="url(#fadeR)"/>
  <rect x="510" y="270" width="490" height="126" rx="16" fill="#06374A" fill-opacity="0.2" stroke="#1AC4FF" stroke-opacity="0.28"/>
  <rect x="508" y="270" width="8" height="126" rx="4" fill="#1AC4FF"/>
  <rect x="994" y="270" width="8" height="126" rx="4" fill="#1AC4FF"/>
  <rect x="962" y="242" width="74" height="26" rx="13" fill="#F7F7F7"/>
  <text x="978" y="259" fill="#151515" font-size="12" font-family="Segoe UI" font-weight="700">00:18.6</text>
  <path d="M526 334H540L546 298L552 364L558 322L564 352L570 305L576 348L582 282L588 340L594 310L600 348L606 300L612 346L618 286L624 344L630 312L636 352L642 302L648 342L654 318L660 348L666 298L672 352L678 304L684 338L690 292L696 350L702 308L708 340L714 288L720 350L726 310L732 346L738 296L744 338L750 302L756 348L762 312L768 336L774 294L780 344L786 308L792 332L798 286L804 352L810 300L816 344L822 316L828 338L834 302L840 350L846 292L852 344L858 304L864 352L870 296L876 346L882 300L888 356L894 308L900 338L906 298L912 346L918 306L924 340L930 294L936 352L942 304L948 344L954 310L960 338L966 302L972 350L978 318L984 338" stroke="#1AC4FF" stroke-width="2.4" stroke-linecap="round"/>
  <line x1="324" y1="526" x2="1322" y2="526" stroke="#353535"/>
  <text x="324" y="548" fill="#D8D8D8" font-size="12" font-family="Segoe UI">00:00.0</text>
  <text x="497" y="548" fill="#D8D8D8" font-size="12" font-family="Segoe UI">00:05.0</text>
  <text x="670" y="548" fill="#D8D8D8" font-size="12" font-family="Segoe UI">00:10.0</text>
  <text x="843" y="548" fill="#D8D8D8" font-size="12" font-family="Segoe UI">00:15.0</text>
  <text x="1016" y="548" fill="#D8D8D8" font-size="12" font-family="Segoe UI">00:20.0</text>
  <text x="1189" y="548" fill="#D8D8D8" font-size="12" font-family="Segoe UI">00:25.0</text>
  <rect x="300" y="570" width="38" height="38" rx="8" fill="#2D2D2D" stroke="#3A3A3A"/>
  <rect x="348" y="570" width="38" height="38" rx="8" fill="#2D2D2D" stroke="#3A3A3A"/>
  <rect x="396" y="570" width="38" height="38" rx="8" fill="#2D2D2D" stroke="#3A3A3A"/>
  <rect x="444" y="570" width="38" height="38" rx="8" fill="#2D2D2D" stroke="#3A3A3A"/>
  <text x="314" y="594" fill="#F0F0F0" font-size="16" font-family="Segoe UI">▶</text>
  <text x="362" y="594" fill="#F0F0F0" font-size="16" font-family="Segoe UI">■</text>
  <text x="408" y="594" fill="#F0F0F0" font-size="16" font-family="Segoe UI">↶</text>
  <text x="456" y="594" fill="#F0F0F0" font-size="16" font-family="Segoe UI">↷</text>
  <text x="300" y="658" fill="#A7A7A7" font-size="14" font-family="Segoe UI">시작</text>
  <rect x="300" y="670" width="142" height="42" rx="8" fill="#252525" stroke="#3A3A3A"/>
  <text x="322" y="696" fill="#F4F4F4" font-size="15" font-family="Segoe UI">00:05.9</text>
  <text x="472" y="658" fill="#A7A7A7" font-size="14" font-family="Segoe UI">끝</text>
  <rect x="472" y="670" width="142" height="42" rx="8" fill="#252525" stroke="#3A3A3A"/>
  <text x="494" y="696" fill="#F4F4F4" font-size="15" font-family="Segoe UI">00:18.6</text>
  <text x="652" y="658" fill="#A7A7A7" font-size="14" font-family="Segoe UI">방식</text>
  <circle cx="664" cy="689" r="7" stroke="#F4F4F4"/>
  <circle cx="664" cy="689" r="3.5" fill="#F4F4F4"/>
  <text x="679" y="694" fill="#F4F4F4" font-size="15" font-family="Segoe UI">선택한 부분 남기기</text>
  <circle cx="664" cy="724" r="7" stroke="#F4F4F4"/>
  <text x="679" y="729" fill="#F4F4F4" font-size="15" font-family="Segoe UI">선택한 부분 지우기</text>
  <rect x="1020" y="668" width="94" height="40" rx="20" fill="#2A2A2A" stroke="#3A3A3A"/>
  <text x="1049" y="693" fill="#D1D1D1" font-size="14" font-family="Segoe UI">되돌리기</text>
  <rect x="1124" y="668" width="94" height="40" rx="20" fill="#2A2A2A" stroke="#3A3A3A"/>
  <text x="1153" y="693" fill="#D1D1D1" font-size="14" font-family="Segoe UI">다시 하기</text>
  <rect x="1228" y="662" width="118" height="46" rx="23" fill="url(#accent)"/>
  <text x="1273" y="691" fill="white" font-size="16" font-family="Segoe UI" font-weight="700">적용</text>
  <rect x="60" y="808" width="92" height="36" rx="18" fill="#2A2A2A" stroke="#3A3A3A"/>
  <text x="90" y="831" fill="#D1D1D1" font-size="14" font-family="Segoe UI">초기화</text>
  <rect x="1152" y="808" width="72" height="36" rx="18" fill="#1E1E1E" stroke="#313131"/>
  <text x="1172" y="831" fill="#CFCFCF" font-size="13" font-family="Segoe UI">형식: wav</text>
  <rect x="1234" y="804" width="112" height="42" rx="21" fill="url(#accent)"/>
  <text x="1274" y="831" fill="white" font-size="16" font-family="Segoe UI" font-weight="700">저장</text>
  <defs>
    <linearGradient id="brand" x1="87" y1="54" x2="87" y2="88" gradientUnits="userSpaceOnUse">
      <stop stop-color="#4A47D1"/>
      <stop offset="1" stop-color="#292C8E"/>
    </linearGradient>
    <linearGradient id="accent" x1="1287" y1="662" x2="1287" y2="708" gradientUnits="userSpaceOnUse">
      <stop stop-color="#1AC4FF"/>
      <stop offset="1" stop-color="#0AA0D6"/>
    </linearGradient>
    <linearGradient id="fade" x1="324" y1="385" x2="534" y2="385" gradientUnits="userSpaceOnUse">
      <stop stop-color="#072C38" stop-opacity="0.35"/>
      <stop offset="1" stop-color="#072C38" stop-opacity="0.02"/>
    </linearGradient>
    <linearGradient id="fadeR" x1="1322" y1="385" x2="1112" y2="385" gradientUnits="userSpaceOnUse">
      <stop stop-color="#072C38" stop-opacity="0.35"/>
      <stop offset="1" stop-color="#072C38" stop-opacity="0.02"/>
    </linearGradient>
  </defs>
</svg>
