<svg xmlns="http://www.w3.org/2000/svg" width="1440" height="1024" viewBox="0 0 1440 1024" fill="none">
  <rect width="1440" height="1024" fill="#E9DED0"/>
  <rect x="32" y="24" width="1376" height="976" rx="34" fill="#15222B"/>
  <rect x="64" y="56" width="1312" height="912" rx="30" fill="#F7F0E8"/>
  <rect x="92" y="84" width="1256" height="126" rx="28" fill="#1C2D39"/>
  <text x="122" y="132" fill="#D7C2B0" font-size="18" font-family="Arial, sans-serif">GigaStudy Studio</text>
  <text x="122" y="176" fill="#FFF8F1" font-size="38" font-family="Georgia, serif">Morning Warmup</text>
  <text x="122" y="205" fill="#DCCFC0" font-size="18" font-family="Arial, sans-serif">One rehearsal console for guide-backed takes, note feedback, melody, arrangement, and export.</text>
  <g>
    <rect x="782" y="108" width="108" height="72" rx="18" fill="#283D4B"/>
    <text x="806" y="136" fill="#FFF8F1" font-size="16" font-family="Arial, sans-serif">92 BPM</text>
    <text x="814" y="160" fill="#D9CDBE" font-size="13" font-family="Arial, sans-serif">4/4</text>
    <rect x="902" y="108" width="108" height="72" rx="18" fill="#283D4B"/>
    <text x="945" y="136" fill="#FFF8F1" font-size="16" font-family="Arial, sans-serif">A</text>
    <text x="929" y="160" fill="#D9CDBE" font-size="13" font-family="Arial, sans-serif">practice</text>
    <rect x="1022" y="108" width="124" height="72" rx="18" fill="#315744"/>
    <text x="1048" y="136" fill="#FFF8F1" font-size="16" font-family="Arial, sans-serif">Chords ready</text>
    <text x="1065" y="160" fill="#D9E3D5" font-size="13" font-family="Arial, sans-serif">1 markers</text>
    <rect x="1158" y="108" width="162" height="72" rx="18" fill="#283D4B"/>
    <text x="1186" y="136" fill="#FFF8F1" font-size="16" font-family="Arial, sans-serif">Mic pending</text>
    <text x="1184" y="160" fill="#D9CDBE" font-size="13" font-family="Arial, sans-serif">No saved profile yet</text>
  </g>
  <rect x="92" y="238" width="824" height="518" rx="28" fill="#FCF7F2"/>
  <text x="124" y="282" fill="#B5643A" font-size="16" font-family="Arial, sans-serif">Main Canvas</text>
  <text x="124" y="322" fill="#1E2D38" font-size="34" font-family="Georgia, serif">Waveform and contour canvas</text>
  <rect x="124" y="356" width="760" height="84" rx="18" fill="#F1E5D8"/>
  <rect x="124" y="466" width="760" height="214" rx="22" fill="#1F3240"/>
  <path d="M150 587C182 561 218 567 247 591C276 615 308 618 340 594C373 570 404 565 435 587C467 609 498 612 529 590C563 566 595 567 624 591C655 617 688 616 719 594C751 571 783 567 816 586C841 601 860 604 884 596" stroke="#B5643A" stroke-width="9" stroke-linecap="round"/>
  <path d="M150 618C184 633 217 625 249 608C281 592 312 589 345 603C379 617 411 616 444 603C478 590 511 591 543 606C576 621 609 623 643 607C676 591 708 589 741 603C774 617 808 621 844 607" stroke="#7DA9B8" stroke-width="5" stroke-linecap="round"/>
  <rect x="944" y="238" width="404" height="518" rx="28" fill="#FBF5EE"/>
  <text x="976" y="282" fill="#B5643A" font-size="16" font-family="Arial, sans-serif">Inspector</text>
  <text x="976" y="322" fill="#1E2D38" font-size="30" font-family="Georgia, serif">Keep score and note detail visible</text>
  <rect x="976" y="356" width="340" height="96" rx="18" fill="#F1E5D8"/>
  <rect x="976" y="472" width="164" height="122" rx="18" fill="#F1E5D8"/>
  <rect x="1152" y="472" width="164" height="122" rx="18" fill="#F1E5D8"/>
  <rect x="976" y="610" width="340" height="118" rx="18" fill="#FFFFFF"/>
  <text x="998" y="390" fill="#1E2D38" font-size="18" font-family="Arial, sans-serif">Selected take: Take 1</text>
  <text x="998" y="418" fill="#1E2D38" font-size="18" font-family="Arial, sans-serif">Pitch mode: Note-level scorer</text>
  <text x="998" y="446" fill="#1E2D38" font-size="18" font-family="Arial, sans-serif">Harmony mode: Chord-aware</text>
  <text x="998" y="515" fill="#1E2D38" font-size="16" font-family="Arial, sans-serif">Pitch</text>
  <text x="998" y="560" fill="#1E2D38" font-size="38" font-family="Georgia, serif">86</text>
  <text x="1176" y="515" fill="#1E2D38" font-size="16" font-family="Arial, sans-serif">Rhythm</text>
  <text x="1176" y="560" fill="#1E2D38" font-size="38" font-family="Georgia, serif">91</text>
  <text x="998" y="646" fill="#1E2D38" font-size="18" font-family="Arial, sans-serif">Weak note: A4</text>
  <text x="998" y="676" fill="#1E2D38" font-size="18" font-family="Arial, sans-serif">Attack: +24c sharp</text>
  <text x="998" y="704" fill="#1E2D38" font-size="18" font-family="Arial, sans-serif">Sustain: +6c</text>
  <rect x="92" y="786" width="1256" height="118" rx="28" fill="#F1E5D8"/>
  <text x="122" y="826" fill="#1E2D38" font-size="16" font-family="Arial, sans-serif">Transport + Track Lane</text>
  <rect x="122" y="844" width="116" height="40" rx="20" fill="#B5643A"/>
  <rect x="252" y="844" width="96" height="40" rx="20" fill="#F8F2EB" stroke="#D4BAA4"/>
  <rect x="362" y="844" width="118" height="40" rx="20" fill="#F8F2EB" stroke="#D4BAA4"/>
  <rect x="494" y="844" width="104" height="40" rx="20" fill="#F8F2EB" stroke="#D4BAA4"/>
  <text x="154" y="870" fill="#FFF8F1" font-size="16" font-family="Arial, sans-serif">Record</text>
  <text x="288" y="870" fill="#1E2D38" font-size="16" font-family="Arial, sans-serif">Stop</text>
  <text x="389" y="870" fill="#1E2D38" font-size="16" font-family="Arial, sans-serif">Guide</text>
  <text x="520" y="870" fill="#1E2D38" font-size="16" font-family="Arial, sans-serif">Metronome</text>
  <text x="676" y="870" fill="#1E2D38" font-size="18" font-family="Arial, sans-serif">Guide  READY</text>
  <text x="930" y="870" fill="#1E2D38" font-size="18" font-family="Arial, sans-serif">Take 1  READY  100 / 100</text>
</svg>
