<svg width="1440" height="1080" viewBox="0 0 1440 1080" fill="none" xmlns="http://www.w3.org/2000/svg">
  <defs>
    <style>
      .ui { font-family: "Instrument Sans", "Manrope", "Noto Sans KR", sans-serif; }
      .paper { fill: #FFFDF9; }
      .paper50 { fill: #FBF6EE; }
      .paper100 { fill: #F2E7D8; }
      .ink900 { fill: #1E2A35; }
      .ink700 { fill: #465867; }
      .ink500 { fill: #6B7B88; }
      .accent { fill: #B75B2D; }
      .success { fill: #2F7B62; }
    </style>
  </defs>

  <rect width="1440" height="1080" fill="#FBF6EE"/>

  <g class="ui">
    <line x1="40" y1="72.5" x2="1400" y2="72.5" stroke="#DDD2C3"/>
    <text x="40" y="42" font-size="20" font-weight="700" class="ink900">GigaStudy</text>
    <text x="40" y="58" font-size="11" font-weight="600" class="ink500">Vocal Studio</text>
    <text x="1138" y="45" font-size="15" font-weight="600" class="ink700">새 프로젝트</text>
    <text x="1246" y="45" font-size="15" font-weight="600" class="ink700">최근 작업</text>
    <text x="1344" y="45" font-size="15" font-weight="600" class="ink700">공유 검토</text>
  </g>

  <g class="ui" transform="translate(40 112)">
    <rect x="0.5" y="0.5" width="1359" height="839" rx="24" fill="#FFFDF9" stroke="#DDD2C3"/>
    <line x1="840.5" y1="0" x2="840.5" y2="840" stroke="#DDD2C3"/>

    <text x="36" y="52" font-size="28" font-weight="700" class="ink900">최근 작업</text>
    <text x="36" y="82" font-size="14" class="ink700">마지막으로 열었던 작업을 바로 이어서 엽니다.</text>

    <rect x="36.5" y="104.5" width="260" height="40" rx="12" fill="#FBF6EE" stroke="#DDD2C3"/>
    <text x="56" y="130" font-size="14" class="ink500">프로젝트 이름으로 찾기</text>
    <rect x="314.5" y="104.5" width="54" height="32" rx="12" fill="#1B242D" stroke="#1B242D"/>
    <text x="341" y="125" font-size="12" font-weight="600" text-anchor="middle" fill="#FFFDF9">전체</text>
    <rect x="376.5" y="104.5" width="86" height="32" rx="12" fill="#F2E7D8" stroke="#DDD2C3"/>
    <text x="419" y="125" font-size="12" font-weight="600" text-anchor="middle" class="ink900">최근 연 항목</text>
    <rect x="470.5" y="104.5" width="54" height="32" rx="12" fill="#F2E7D8" stroke="#DDD2C3"/>
    <text x="497" y="125" font-size="12" font-weight="600" text-anchor="middle" class="ink900">고정</text>

    <line x1="36" y1="176.5" x2="804" y2="176.5" stroke="#DDD2C3"/>
    <text x="36" y="198" font-size="11" font-weight="600" class="ink500">프로젝트</text>
    <text x="308" y="198" font-size="11" font-weight="600" class="ink500">최근 수정</text>
    <text x="438" y="198" font-size="11" font-weight="600" class="ink500">작업 목적</text>
    <text x="580" y="198" font-size="11" font-weight="600" class="ink500">진행 상태</text>
    <text x="700" y="198" font-size="11" font-weight="600" class="ink500">마지막 화면</text>

    <g transform="translate(36 216)">
      <rect x="0" y="0" width="768" height="84" fill="#FBF6EE"/>
      <text x="0" y="30" font-size="18" font-weight="700" class="ink900">봄 합창 1차 세션</text>
      <text x="0" y="52" font-size="12" font-weight="600" class="ink500">guide ready / take 4 / selected A</text>
      <text x="272" y="40" font-size="14" font-weight="500" class="ink700">오늘 10:42</text>
      <text x="402" y="40" font-size="14" font-weight="500" class="ink700">팀 파트 연습</text>
      <text x="544" y="40" font-size="14" font-weight="500" class="ink700">총점 86 / 후보 3</text>
      <text x="664" y="40" font-size="14" font-weight="500" class="ink700">Studio</text>
      <rect x="696.5" y="18.5" width="48" height="32" fill="#1B242D" stroke="#1B242D"/>
      <text x="720" y="39" font-size="12" font-weight="600" text-anchor="middle" fill="#FFFDF9">열기</text>
      <text x="758" y="40" font-size="18" font-weight="700" class="ink900">⋯</text>
      <line x1="0" y1="84.5" x2="768" y2="84.5" stroke="#DDD2C3"/>
    </g>

    <g transform="translate(36 300)">
      <text x="0" y="30" font-size="18" font-weight="700" class="ink900">아카펠라 데모 점검</text>
      <text x="0" y="52" font-size="12" font-weight="600" class="ink500">guide ready / take 2 / melody saved</text>
      <text x="272" y="40" font-size="14" font-weight="500" class="ink700">어제 18:21</text>
      <text x="402" y="40" font-size="14" font-weight="500" class="ink700">개인 점검</text>
      <text x="544" y="40" font-size="14" font-weight="500" class="ink700">총점 79 / 후보 1</text>
      <text x="664" y="40" font-size="14" font-weight="500" class="ink700">Arrangement</text>
      <rect x="696.5" y="18.5" width="48" height="32" fill="#FFFDF9" stroke="#BDAF9A"/>
      <text x="720" y="39" font-size="12" font-weight="600" text-anchor="middle" class="ink900">열기</text>
      <text x="758" y="40" font-size="18" font-weight="700" class="ink900">⋯</text>
      <line x1="0" y1="84.5" x2="768" y2="84.5" stroke="#DDD2C3"/>
    </g>

    <g transform="translate(36 384)">
      <text x="0" y="30" font-size="18" font-weight="700" class="ink900">메인 보컬 테이크 정리</text>
      <text x="0" y="52" font-size="12" font-weight="600" class="ink500">guide ready / take 6 / share active</text>
      <text x="272" y="40" font-size="14" font-weight="500" class="ink700">4월 14일</text>
      <text x="402" y="40" font-size="14" font-weight="500" class="ink700">기본 연습</text>
      <text x="544" y="40" font-size="14" font-weight="500" class="ink700">총점 88 / 후보 2</text>
      <text x="664" y="40" font-size="14" font-weight="500" class="ink700">Review</text>
      <rect x="696.5" y="18.5" width="48" height="32" fill="#FFFDF9" stroke="#BDAF9A"/>
      <text x="720" y="39" font-size="12" font-weight="600" text-anchor="middle" class="ink900">열기</text>
      <text x="758" y="40" font-size="18" font-weight="700" class="ink900">⋯</text>
      <line x1="0" y1="84.5" x2="768" y2="84.5" stroke="#DDD2C3"/>
    </g>

    <g transform="translate(36 468)">
      <text x="0" y="30" font-size="18" font-weight="700" class="ink900">합창 리허설 후보 비교</text>
      <text x="0" y="52" font-size="12" font-weight="600" class="ink500">guide ready / take 5 / export prepared</text>
      <text x="272" y="40" font-size="14" font-weight="500" class="ink700">4월 12일</text>
      <text x="402" y="40" font-size="14" font-weight="500" class="ink700">편곡 준비</text>
      <text x="544" y="40" font-size="14" font-weight="500" class="ink700">총점 82 / 후보 4</text>
      <text x="664" y="40" font-size="14" font-weight="500" class="ink700">Arrangement</text>
      <rect x="696.5" y="18.5" width="48" height="32" fill="#FFFDF9" stroke="#BDAF9A"/>
      <text x="720" y="39" font-size="12" font-weight="600" text-anchor="middle" class="ink900">열기</text>
      <text x="758" y="40" font-size="18" font-weight="700" class="ink900">⋯</text>
      <line x1="0" y1="84.5" x2="768" y2="84.5" stroke="#DDD2C3"/>
    </g>

    <g transform="translate(876 36)">
      <text x="0" y="16" font-size="12" font-weight="600" class="accent">새 프로젝트</text>
      <text x="0" y="66" font-size="32" font-weight="700" class="ink900">
        <tspan x="0" dy="0">세션 이름과 기본값만 정하면</tspan>
        <tspan x="0" dy="36">바로 스튜디오로 들어갑니다</tspan>
      </text>

      <text x="0" y="154" font-size="15" font-weight="600" class="ink900">프로젝트 이름</text>
      <rect x="0.5" y="168.5" width="444" height="56" rx="16" fill="#FFFDF9" stroke="#DDD2C3"/>
      <text x="20" y="204" font-size="16" class="ink700">봄 합창 2차 점검</text>

      <text x="0" y="254" font-size="15" font-weight="600" class="ink900">템포(BPM)</text>
      <rect x="0.5" y="268.5" width="214" height="56" rx="16" fill="#FFFDF9" stroke="#DDD2C3"/>
      <text x="20" y="304" font-size="16" class="ink700">92</text>

      <text x="230" y="254" font-size="15" font-weight="600" class="ink900">기준 키</text>
      <rect x="230.5" y="268.5" width="214" height="56" rx="16" fill="#FFFDF9" stroke="#DDD2C3"/>
      <text x="250" y="304" font-size="16" class="ink700">C</text>

      <text x="0" y="354" font-size="15" font-weight="600" class="ink900">박자</text>
      <rect x="0.5" y="368.5" width="214" height="56" rx="16" fill="#FFFDF9" stroke="#DDD2C3"/>
      <text x="20" y="404" font-size="16" class="ink700">4/4</text>

      <text x="230" y="354" font-size="15" font-weight="600" class="ink900">작업 목적</text>
      <rect x="230.5" y="368.5" width="214" height="56" rx="16" fill="#FFFDF9" stroke="#DDD2C3"/>
      <text x="250" y="404" font-size="16" class="ink700">팀 파트 연습</text>

      <rect x="0" y="454" width="445" height="56" rx="12" fill="#B75B2D"/>
      <text x="222.5" y="489" font-size="15" font-weight="600" text-anchor="middle" fill="#FFFDF9">스튜디오 열기</text>

      <line x1="0" y1="536.5" x2="444" y2="536.5" stroke="#DDD2C3"/>
      <text x="0" y="566" font-size="12" font-weight="600" class="accent">공유 검토</text>
      <text x="0" y="616" font-size="28" font-weight="700" class="ink900">
        <tspan x="0" dy="0">공유 링크나 토큰으로</tspan>
        <tspan x="0" dy="32">읽기 전용 검토 화면을 엽니다</tspan>
      </text>

      <text x="0" y="686" font-size="15" font-weight="600" class="ink900">공유 링크 또는 토큰</text>
      <rect x="0.5" y="700.5" width="444" height="56" rx="16" fill="#FFFDF9" stroke="#DDD2C3"/>
      <text x="20" y="736" font-size="16" class="ink500">https://gigastudy/... 또는 token 입력</text>

      <rect x="0" y="786" width="142" height="48" rx="12" fill="#1B242D"/>
      <text x="71" y="817" font-size="15" font-weight="600" text-anchor="middle" fill="#FFFDF9">검토 열기</text>
      <rect x="154.5" y="786.5" width="110" height="48" rx="12" fill="transparent" stroke="#BDAF9A"/>
      <text x="209" y="817" font-size="15" font-weight="600" text-anchor="middle" class="ink900">붙여넣기</text>
    </g>
  </g>
</svg>
