<svg width="1440" height="1480" viewBox="0 0 1440 1480" fill="none" xmlns="http://www.w3.org/2000/svg">
  <defs>
    <style>
      .ui { font-family: "Instrument Sans", "Manrope", "Noto Sans KR", sans-serif; }
      .paper { fill: #FFFDF9; }
      .paper50 { fill: #FBF6EE; }
      .paper100 { fill: #F2E7D8; }
      .ink900 { fill: #1E2A35; }
      .ink700 { fill: #465867; }
      .ink500 { fill: #6B7B88; }
      .accent { fill: #B75B2D; }
      .success { fill: #2F7B62; }
      .warning { fill: #A36B1D; }
      .danger { fill: #A5433F; }
    </style>
  </defs>

  <rect width="1440" height="1480" fill="#FBF6EE"/>

  <g class="ui">
    <rect x="0" y="0" width="1440" height="72" fill="#FFFDF9"/>
    <line x1="0" y1="72.5" x2="1440" y2="72.5" stroke="#DDD2C3"/>
    <text x="28" y="31" font-size="28" font-weight="700" class="ink900">운영 개요와 릴리즈 게이트</text>
    <text x="28" y="53" font-size="12" font-weight="500" class="ink500">last refresh 2026.04.16 11:08</text>
    <g transform="translate(1120 18)">
      <rect x="0.5" y="0.5" width="72" height="36" fill="#FFFDF9" stroke="#BDAF9A"/>
      <text x="36" y="24" font-size="14" font-weight="600" text-anchor="middle" class="ink900">새로고침</text>
      <rect x="82.5" y="0.5" width="116" height="36" fill="#FFFDF9" stroke="#BDAF9A"/>
      <text x="140" y="24" font-size="14" font-weight="600" text-anchor="middle" class="ink900">릴리즈 게이트 내려받기</text>
      <rect x="208.5" y="0.5" width="96" height="36" fill="#1B242D" stroke="#1B242D"/>
      <text x="256" y="24" font-size="14" font-weight="600" text-anchor="middle" fill="#FFFDF9">검증 가져오기</text>
    </g>
  </g>

  <g class="ui">
    <rect x="28.5" y="96.5" width="260" height="88" fill="#FFFDF9" stroke="#DDD2C3"/>
    <text x="52" y="124" font-size="11" font-weight="600" class="ink500">release claim readiness</text>
    <text x="52" y="164" font-size="28" font-weight="700" class="ink900">주의</text>
    <rect x="196" y="142" width="64" height="24" rx="12" fill="#FBF2E2"/>
    <text x="228" y="158" font-size="11" font-weight="600" text-anchor="middle" fill="#A36B1D">warning</text>

    <rect x="304.5" y="96.5" width="260" height="88" fill="#FFFDF9" stroke="#DDD2C3"/>
    <text x="328" y="124" font-size="11" font-weight="600" class="ink500">runtime errors today</text>
    <text x="328" y="164" font-size="28" font-weight="700" class="ink900">3</text>

    <rect x="580.5" y="96.5" width="260" height="88" fill="#FFFDF9" stroke="#DDD2C3"/>
    <text x="604" y="124" font-size="11" font-weight="600" class="ink500">validation runs this week</text>
    <text x="604" y="164" font-size="28" font-weight="700" class="ink900">12</text>

    <rect x="856.5" y="96.5" width="260" height="88" fill="#FFFDF9" stroke="#DDD2C3"/>
    <text x="880" y="124" font-size="11" font-weight="600" class="ink500">failed uploads</text>
    <text x="880" y="164" font-size="28" font-weight="700" class="ink900">1</text>

    <rect x="1132.5" y="96.5" width="280" height="88" fill="#FFFDF9" stroke="#DDD2C3"/>
    <text x="1156" y="124" font-size="11" font-weight="600" class="ink500">failed analysis jobs</text>
    <text x="1156" y="164" font-size="28" font-weight="700" class="ink900">2</text>
  </g>

  <g class="ui">
    <rect x="28.5" y="212.5" width="764" height="360" fill="#FFFDF9" stroke="#DDD2C3"/>
    <text x="52" y="248" font-size="20" font-weight="700" class="ink900">Runtime logs</text>
    <rect x="560.5" y="228.5" width="80" height="28" fill="#FFFDF9" stroke="#BDAF9A"/>
    <text x="600" y="247" font-size="12" font-weight="600" text-anchor="middle" class="ink900">24시간</text>
    <rect x="650.5" y="228.5" width="52" height="28" fill="#1B242D" stroke="#1B242D"/>
    <text x="676" y="247" font-size="12" font-weight="600" text-anchor="middle" fill="#FFFDF9">error</text>
    <rect x="710.5" y="228.5" width="52" height="28" fill="#FFFDF9" stroke="#BDAF9A"/>
    <text x="736" y="247" font-size="12" font-weight="600" text-anchor="middle" class="ink900">warn</text>

    <line x1="52" y1="282.5" x2="768" y2="282.5" stroke="#DDD2C3"/>
    <text x="52" y="304" font-size="11" font-weight="600" class="ink500">timestamp</text>
    <text x="188" y="304" font-size="11" font-weight="600" class="ink500">page</text>
    <text x="328" y="304" font-size="11" font-weight="600" class="ink500">event</text>
    <text x="570" y="304" font-size="11" font-weight="600" class="ink500">severity</text>
    <text x="664" y="304" font-size="11" font-weight="600" class="ink500">detail</text>

    <line x1="52" y1="338.5" x2="768" y2="338.5" stroke="#EEE5D8"/>
    <text x="52" y="328" font-size="13" class="ink900">11:02:14</text>
    <text x="188" y="328" font-size="13" class="ink900">/projects/:id/studio</text>
    <text x="328" y="328" font-size="13" class="ink900">analysis_retry_failed</text>
    <text x="570" y="328" font-size="13" font-weight="700" fill="#A5433F">error</text>
    <text x="664" y="328" font-size="13" font-weight="600" class="accent">상세 보기</text>

    <line x1="52" y1="382.5" x2="768" y2="382.5" stroke="#EEE5D8"/>
    <text x="52" y="372" font-size="13" class="ink900">10:44:03</text>
    <text x="188" y="372" font-size="13" class="ink900">/ops</text>
    <text x="328" y="372" font-size="13" class="ink900">validation_file_parse_warning</text>
    <text x="570" y="372" font-size="13" font-weight="700" fill="#A36B1D">warn</text>
    <text x="664" y="372" font-size="13" font-weight="600" class="accent">상세 보기</text>

    <line x1="52" y1="426.5" x2="768" y2="426.5" stroke="#EEE5D8"/>
    <text x="52" y="416" font-size="13" class="ink900">09:51:48</text>
    <text x="188" y="416" font-size="13" class="ink900">/shared/:token</text>
    <text x="328" y="416" font-size="13" class="ink900">asset_download_failed</text>
    <text x="570" y="416" font-size="13" font-weight="700" fill="#A5433F">error</text>
    <text x="664" y="416" font-size="13" font-weight="600" class="accent">상세 보기</text>

    <line x1="52" y1="470.5" x2="768" y2="470.5" stroke="#EEE5D8"/>
    <text x="52" y="460" font-size="13" class="ink900">08:12:33</text>
    <text x="188" y="460" font-size="13" class="ink900">/projects/:id/arrangement</text>
    <text x="328" y="460" font-size="13" class="ink900">candidate_export_timeout</text>
    <text x="570" y="460" font-size="13" font-weight="700" fill="#A36B1D">warn</text>
    <text x="664" y="460" font-size="13" font-weight="600" class="accent">상세 보기</text>
  </g>

  <g class="ui">
    <rect x="820.5" y="212.5" width="592" height="360" fill="#FFFDF9" stroke="#DDD2C3"/>
    <text x="844" y="248" font-size="20" font-weight="700" class="ink900">Release gate</text>
    <text x="844" y="286" font-size="12" font-weight="600" class="ink500">gate checklist</text>
    <line x1="844" y1="308.5" x2="1388" y2="308.5" stroke="#DDD2C3"/>
    <text x="844" y="338" font-size="14" class="ink900">문서 기준과 현재 릴리즈 게이트 정렬</text>
    <text x="1324" y="338" font-size="14" font-weight="700" text-anchor="end" fill="#2F7B62">pass</text>
    <text x="844" y="374" font-size="14" class="ink900">브라우저 검증 최신 상태</text>
    <text x="1324" y="374" font-size="14" font-weight="700" text-anchor="end" fill="#A36B1D">needs review</text>
    <text x="844" y="410" font-size="14" class="ink900">큰 chunk 경고 문서화 여부</text>
    <text x="1324" y="410" font-size="14" font-weight="700" text-anchor="end" fill="#2F7B62">pass</text>
    <text x="844" y="446" font-size="14" class="ink900">human corpus 기반 threshold</text>
    <text x="1324" y="446" font-size="14" font-weight="700" text-anchor="end" fill="#A36B1D">open</text>
    <line x1="844" y1="488.5" x2="1388" y2="488.5" stroke="#DDD2C3"/>
    <text x="844" y="524" font-size="12" font-weight="600" class="ink500">latest build</text>
    <text x="844" y="556" font-size="24" font-weight="700" class="ink900">main / 9e646d5</text>
    <rect x="844.5" y="584.5" width="116" height="36" fill="#FFFDF9" stroke="#BDAF9A"/>
    <text x="902" y="608" font-size="14" font-weight="600" text-anchor="middle" class="ink900">게이트 JSON 받기</text>
    <rect x="970.5" y="584.5" width="96" height="36" fill="#1B242D" stroke="#1B242D"/>
    <text x="1018" y="608" font-size="14" font-weight="600" text-anchor="middle" fill="#FFFDF9">상세 조건 보기</text>
  </g>

  <g class="ui">
    <rect x="28.5" y="596.5" width="764" height="316" fill="#FFFDF9" stroke="#DDD2C3"/>
    <text x="52" y="632" font-size="20" font-weight="700" class="ink900">Validation import</text>
    <rect x="52.5" y="656.5" width="92" height="36" fill="#FFFDF9" stroke="#BDAF9A"/>
    <text x="98" y="680" font-size="14" font-weight="600" text-anchor="middle" class="ink900">템플릿 받기</text>
    <rect x="154.5" y="656.5" width="84" height="36" fill="#FFFDF9" stroke="#BDAF9A"/>
    <text x="196" y="680" font-size="14" font-weight="600" text-anchor="middle" class="ink900">파일 선택</text>
    <rect x="248.5" y="656.5" width="76" height="36" fill="#FFFDF9" stroke="#BDAF9A"/>
    <text x="286" y="680" font-size="14" font-weight="600" text-anchor="middle" class="ink900">미리 보기</text>
    <rect x="334.5" y="656.5" width="76" height="36" fill="#1B242D" stroke="#1B242D"/>
    <text x="372" y="680" font-size="14" font-weight="600" text-anchor="middle" fill="#FFFDF9">가져오기</text>
    <line x1="52" y1="716.5" x2="768" y2="716.5" stroke="#DDD2C3"/>
    <text x="52" y="744" font-size="11" font-weight="600" class="ink500">preview rows</text>
    <text x="52" y="782" font-size="13" class="ink900">Safari / macOS / shared review / pass</text>
    <text x="52" y="816" font-size="13" class="ink900">Chrome / Windows / studio / pass</text>
    <text x="52" y="850" font-size="13" class="ink900">iPhone / Safari / launch / pending note</text>
  </g>

  <g class="ui">
    <rect x="820.5" y="596.5" width="592" height="316" fill="#FFFDF9" stroke="#DDD2C3"/>
    <text x="844" y="632" font-size="20" font-weight="700" class="ink900">Validation log</text>
    <line x1="844" y1="664.5" x2="1388" y2="664.5" stroke="#DDD2C3"/>
    <text x="844" y="692" font-size="13" class="ink900">Chrome 136 / Windows 11 / pass</text>
    <text x="1296" y="692" font-size="13" font-weight="600" text-anchor="end" class="accent">실행 상세</text>
    <text x="844" y="730" font-size="13" class="ink900">Safari 18 / macOS / pass</text>
    <text x="1296" y="730" font-size="13" font-weight="600" text-anchor="end" class="accent">실행 상세</text>
    <text x="844" y="768" font-size="13" class="ink900">Safari / iPhone / note clipping warning</text>
    <text x="1296" y="768" font-size="13" font-weight="600" text-anchor="end" class="accent">실행 상세</text>
    <text x="844" y="806" font-size="13" class="ink900">Samsung Internet / Android / pass</text>
    <text x="1296" y="806" font-size="13" font-weight="600" text-anchor="end" class="accent">실행 상세</text>
  </g>

  <g class="ui">
    <rect x="28.5" y="936.5" width="444" height="492" fill="#FFFDF9" stroke="#DDD2C3"/>
    <text x="52" y="972" font-size="20" font-weight="700" class="ink900">Failed tracks</text>
    <line x1="52" y1="1002.5" x2="448" y2="1002.5" stroke="#DDD2C3"/>
    <text x="52" y="1034" font-size="13" class="ink900">take_12.wav / upload interrupted / 10:44</text>
    <rect x="354.5" y="1014.5" width="76" height="28" fill="#FFFDF9" stroke="#BDAF9A"/>
    <text x="392" y="1033" font-size="12" font-weight="600" text-anchor="middle" class="ink900">다시 시도</text>
  </g>

  <g class="ui">
    <rect x="498.5" y="936.5" width="444" height="492" fill="#FFFDF9" stroke="#DDD2C3"/>
    <text x="522" y="972" font-size="20" font-weight="700" class="ink900">Analysis jobs</text>
    <line x1="522" y1="1002.5" x2="918" y2="1002.5" stroke="#DDD2C3"/>
    <text x="522" y="1034" font-size="13" class="ink900">job_98 / gsv-pitch-3 / retry 2</text>
    <text x="816" y="1034" font-size="13" font-weight="600" text-anchor="end" class="accent">기록 보기</text>
    <rect x="832.5" y="1014.5" width="76" height="28" fill="#FFFDF9" stroke="#BDAF9A"/>
    <text x="870" y="1033" font-size="12" font-weight="600" text-anchor="middle" class="ink900">재실행</text>
    <text x="522" y="1072" font-size="13" class="ink900">job_101 / gsv-harmony-2 / stalled</text>
  </g>

  <g class="ui">
    <rect x="968.5" y="936.5" width="444" height="492" fill="#FFFDF9" stroke="#DDD2C3"/>
    <text x="992" y="972" font-size="20" font-weight="700" class="ink900">Latest audio profiles</text>
    <line x1="992" y1="1002.5" x2="1388" y2="1002.5" stroke="#DDD2C3"/>
    <text x="992" y="1034" font-size="13" class="ink900">Choir room USB capture / 48kHz / stable</text>
    <text x="1292" y="1034" font-size="13" font-weight="600" text-anchor="end" class="accent">프로필 상세</text>
    <text x="992" y="1072" font-size="13" class="ink900">Laptop internal mic / latency warning</text>
    <text x="1292" y="1072" font-size="13" font-weight="600" text-anchor="end" class="accent">프로필 상세</text>
  </g>
</svg>
