<svg width="1440" height="1660" viewBox="0 0 1440 1660" fill="none" xmlns="http://www.w3.org/2000/svg">
  <defs>
    <style>
      .ui { font-family: "Instrument Sans", "Manrope", "Noto Sans KR", sans-serif; }
      .paper { fill: #FFFDF9; }
      .paper50 { fill: #FBF6EE; }
      .paper100 { fill: #F2E7D8; }
      .ink900 { fill: #1E2A35; }
      .ink700 { fill: #465867; }
      .ink500 { fill: #6B7B88; }
      .shell900 { fill: #151C22; }
      .shell850 { fill: #1B242D; }
      .shell800 { fill: #232F3A; }
      .accent { fill: #B75B2D; }
      .cyan { fill: #4C8FA6; }
      .success { fill: #2F7B62; }
    </style>
  </defs>

  <rect width="1440" height="1660" fill="#151C22"/>

  <g class="ui">
    <rect x="0" y="0" width="1440" height="76" class="shell850"/>
    <line x1="0" y1="75.5" x2="1440" y2="75.5" stroke="#32404C"/>
    <line x1="300.5" y1="0" x2="300.5" y2="76" stroke="#32404C"/>
    <line x1="1080.5" y1="0" x2="1080.5" y2="76" stroke="#32404C"/>

    <text x="28" y="34" font-size="28" font-weight="700" fill="#FFFDF9">봄 합창 1차 세션</text>
    <text x="28" y="54" font-size="12" font-weight="500" fill="#D7C8B3" fill-opacity="0.72">studio mode / 2026.04.16 created</text>

    <g transform="translate(300 0)">
      <line x1="130.5" y1="0" x2="130.5" y2="76" stroke="#32404C"/>
      <line x1="260.5" y1="0" x2="260.5" y2="76" stroke="#32404C"/>
      <line x1="390.5" y1="0" x2="390.5" y2="76" stroke="#32404C"/>
      <line x1="520.5" y1="0" x2="520.5" y2="76" stroke="#32404C"/>
      <line x1="650.5" y1="0" x2="650.5" y2="76" stroke="#32404C"/>
      <text x="24" y="30" font-size="11" font-weight="600" fill="#D7C8B3">템포</text>
      <text x="24" y="52" font-size="16" font-weight="700" fill="#FFFDF9">92 BPM</text>
      <text x="154" y="30" font-size="11" font-weight="600" fill="#D7C8B3">키</text>
      <text x="154" y="52" font-size="16" font-weight="700" fill="#FFFDF9">C Major</text>
      <text x="284" y="30" font-size="11" font-weight="600" fill="#D7C8B3">코드 타임라인</text>
      <text x="284" y="52" font-size="16" font-weight="700" fill="#FFFDF9">Verse / Hook</text>
      <text x="414" y="30" font-size="11" font-weight="600" fill="#D7C8B3">카운트인</text>
      <text x="414" y="52" font-size="16" font-weight="700" fill="#FFFDF9">1마디</text>
      <text x="544" y="30" font-size="11" font-weight="600" fill="#D7C8B3">마이크</text>
      <text x="544" y="52" font-size="16" font-weight="700" fill="#FFFDF9">AT2020 USB</text>
      <text x="674" y="30" font-size="11" font-weight="600" fill="#D7C8B3">정렬</text>
      <text x="674" y="52" font-size="16" font-weight="700" fill="#FFFDF9">신뢰도 높음</text>
    </g>

    <g transform="translate(1102 20)">
      <rect x="0.5" y="0.5" width="90" height="36" fill="#FFFDF9" stroke="#BDAF9A"/>
      <text x="45" y="24" font-size="14" font-weight="600" text-anchor="middle" class="ink900">프로젝트 설정</text>
      <rect x="100.5" y="0.5" width="48" height="36" fill="#FFFDF9" stroke="#BDAF9A"/>
      <text x="124" y="24" font-size="14" font-weight="600" text-anchor="middle" class="ink900">공유</text>
      <rect x="158.5" y="0.5" width="74" height="36" fill="#FFFDF9" stroke="#BDAF9A"/>
      <text x="195" y="24" font-size="14" font-weight="600" text-anchor="middle" class="ink900">편곡실</text>
    </g>
  </g>

  <g class="ui">
    <rect x="0" y="76" width="220" height="716" class="shell800"/>
    <line x1="219.5" y1="76" x2="219.5" y2="792" stroke="#32404C"/>
    <rect x="0" y="792" width="1440" height="220" class="shell850"/>
    <line x1="0" y1="792.5" x2="1440" y2="792.5" stroke="#32404C"/>
    <rect x="0" y="1012" width="1440" height="648" fill="#FBF6EE"/>
    <line x1="0" y1="1012.5" x2="1440" y2="1012.5" stroke="#DDD2C3"/>

    <text x="24" y="118" font-size="12" font-weight="600" fill="#D7C8B3">MODE</text>
    <rect x="0" y="136" width="220" height="44" fill="transparent"/>
    <rect x="0" y="136" width="4" height="44" fill="#B75B2D"/>
    <text x="24" y="165" font-size="15" font-weight="700" fill="#FFFDF9">녹음</text>
    <text x="24" y="209" font-size="15" font-weight="500" fill="#D7C8B3">리뷰</text>
    <text x="24" y="253" font-size="15" font-weight="500" fill="#D7C8B3">편곡 준비</text>

    <line x1="20" y1="286.5" x2="200" y2="286.5" stroke="#32404C"/>
    <text x="24" y="314" font-size="12" font-weight="600" fill="#D7C8B3">가이드</text>
    <text x="24" y="340" font-size="15" font-weight="600" fill="#FFFDF9">spring-guide.wav</text>
    <text x="24" y="360" font-size="12" font-weight="500" fill="#9DAAB6">01:42 / C / 48kHz</text>
    <rect x="24.5" y="374.5" width="52" height="28" fill="#FFFDF9" stroke="#BDAF9A"/>
    <text x="50" y="393" font-size="12" font-weight="600" text-anchor="middle" class="ink900">교체</text>
    <rect x="84.5" y="374.5" width="52" height="28" fill="#FFFDF9" stroke="#BDAF9A"/>
    <text x="110" y="393" font-size="12" font-weight="600" text-anchor="middle" class="ink900">세부</text>

    <text x="24" y="444" font-size="12" font-weight="600" fill="#D7C8B3">테이크</text>
    <rect x="16" y="458" width="188" height="52" fill="#1B242D" stroke="#4C8FA6"/>
    <text x="28" y="488" font-size="14" font-weight="700" fill="#FFFDF9">take_04</text>
    <text x="112" y="488" font-size="12" font-weight="600" fill="#9BC8D6">ready</text>
    <text x="154" y="488" font-size="14" font-weight="700" fill="#FFFDF9">86</text>
    <text x="184" y="488" font-size="18" font-weight="700" fill="#FFFDF9">⋯</text>
    <rect x="16" y="518" width="188" height="52" fill="transparent" stroke="#32404C"/>
    <text x="28" y="548" font-size="14" font-weight="600" fill="#D7C8B3">take_03</text>
    <text x="112" y="548" font-size="12" font-weight="600" fill="#D7C8B3">ready</text>
    <text x="154" y="548" font-size="14" font-weight="700" fill="#FFFDF9">81</text>
    <text x="184" y="548" font-size="18" font-weight="700" fill="#FFFDF9">⋯</text>
    <rect x="16" y="578" width="188" height="52" fill="transparent" stroke="#32404C"/>
    <text x="28" y="608" font-size="14" font-weight="600" fill="#D7C8B3">take_02</text>
    <text x="112" y="608" font-size="12" font-weight="600" fill="#D7C8B3">low conf</text>
    <text x="154" y="608" font-size="14" font-weight="700" fill="#FFFDF9">74</text>
    <text x="184" y="608" font-size="18" font-weight="700" fill="#FFFDF9">⋯</text>

    <text x="24" y="666" font-size="12" font-weight="600" fill="#D7C8B3">노트 피드백</text>
    <text x="24" y="690" font-size="14" fill="#FFFDF9">flagged 6</text>
    <rect x="24.5" y="702.5" width="104" height="28" fill="#FFFDF9" stroke="#BDAF9A"/>
    <text x="76" y="721" font-size="12" font-weight="600" text-anchor="middle" class="ink900">노트 목록 열기</text>

    <text x="24" y="760" font-size="12" font-weight="600" fill="#D7C8B3">빠른 상태</text>
    <text x="24" y="785" font-size="12" font-weight="600" fill="#9DAAB6">선택 take</text>
    <text x="120" y="785" font-size="18" font-weight="700" fill="#FFFDF9">take_04</text>
  </g>

  <g class="ui">
    <rect x="220" y="76" width="900" height="716" class="paper"/>
    <line x1="1119.5" y1="76" x2="1119.5" y2="792" stroke="#DDD2C3"/>
    <rect x="220" y="76" width="900" height="64" fill="#FFFDF9"/>
    <line x1="220" y1="140.5" x2="1120" y2="140.5" stroke="#DDD2C3"/>
    <text x="248" y="116" font-size="24" font-weight="700" class="ink900">Wave + Pitch</text>
    <text x="414" y="116" font-size="15" font-weight="500" class="ink700">selected take: take_04</text>
    <rect x="788" y="96" width="92" height="28" rx="14" fill="#E8F4EF"/>
    <circle cx="806" cy="110" r="4" fill="#2F7B62"/>
    <text x="822" y="115" font-size="12" font-weight="600" fill="#2F7B62">파형 준비됨</text>
    <rect x="892.5" y="94.5" width="72" height="36" fill="#FFFDF9" stroke="#BDAF9A"/>
    <text x="928" y="118" font-size="14" font-weight="600" text-anchor="middle" class="ink900">테이크 녹음</text>
    <rect x="972.5" y="94.5" width="72" height="36" fill="#FFFDF9" stroke="#BDAF9A"/>
    <text x="1008" y="118" font-size="14" font-weight="600" text-anchor="middle" class="ink900">녹음 멈춤</text>
    <rect x="1052.5" y="94.5" width="44" height="36" fill="#1B242D" stroke="#1B242D"/>
    <text x="1074" y="118" font-size="14" font-weight="600" text-anchor="middle" fill="#FFFDF9">분석</text>

    <rect x="220" y="140" width="900" height="40" fill="#FBF6EE"/>
    <line x1="220" y1="180.5" x2="1120" y2="180.5" stroke="#DDD2C3"/>
    <rect x="248.5" y="148.5" width="46" height="24" fill="#FFFDF9" stroke="#BDAF9A"/>
    <text x="271" y="165" font-size="12" font-weight="600" text-anchor="middle" class="ink900">파형</text>
    <rect x="300.5" y="148.5" width="46" height="24" fill="#1B242D" stroke="#1B242D"/>
    <text x="323" y="165" font-size="12" font-weight="600" text-anchor="middle" fill="#FFFDF9">피치</text>
    <rect x="352.5" y="148.5" width="64" height="24" fill="#FFFDF9" stroke="#BDAF9A"/>
    <text x="384" y="165" font-size="12" font-weight="600" text-anchor="middle" class="ink900">타깃 노트</text>
    <rect x="422.5" y="148.5" width="42" height="24" fill="#FFFDF9" stroke="#BDAF9A"/>
    <text x="443" y="165" font-size="12" font-weight="600" text-anchor="middle" class="ink900">화성</text>
    <rect x="938.5" y="148.5" width="84" height="24" fill="#FFFDF9" stroke="#BDAF9A"/>
    <text x="980" y="165" font-size="12" font-weight="600" text-anchor="middle" class="ink900">전체 take</text>
    <rect x="1028.5" y="148.5" width="56" height="24" fill="#FFFDF9" stroke="#BDAF9A"/>
    <text x="1056" y="165" font-size="12" font-weight="600" text-anchor="middle" class="ink900">100%</text>

    <g transform="translate(248 208)">
      <rect x="0" y="0" width="844" height="380" fill="#FFFDF9"/>
      <rect x="0.5" y="18.5" width="844" height="72" fill="#FBF6EE" stroke="#DDD2C3"/>
      <rect x="0.5" y="108.5" width="844" height="90" fill="#FFFDF9" stroke="#DDD2C3"/>
      <rect x="0.5" y="216.5" width="844" height="96" fill="#FBF6EE" stroke="#DDD2C3"/>
      <rect x="0.5" y="332.5" width="844" height="48" fill="#F2E7D8" fill-opacity="0.28" stroke="#DDD2C3"/>
      <rect x="480" y="18" width="122" height="72" fill="#F2E7D8" stroke="#BDAF9A"/>
      <rect x="612" y="18" width="104" height="72" fill="#F2E7D8" stroke="#BDAF9A"/>
      <line x1="668" y1="6" x2="668" y2="360" stroke="#B75B2D" stroke-width="2"/>
      <path d="M20 58C58 42 90 70 126 58C170 43 206 24 242 28C280 32 310 72 344 72C378 72 412 46 448 47C486 48 514 80 554 80C596 80 624 54 660 55C698 56 726 94 770 94C798 94 818 88 824 80" stroke="#7E8E9A" stroke-opacity="0.45" stroke-width="5" stroke-linecap="round"/>
      <path d="M18 166C58 170 98 126 132 128C170 130 194 184 234 184C274 184 298 122 340 118C380 114 408 166 446 170C486 174 520 140 560 138C604 136 622 160 664 164C704 168 738 152 774 144C800 138 818 137 824 140" stroke="#4C8FA6" stroke-width="5" stroke-linecap="round"/>
      <rect x="240" y="232" width="88" height="24" fill="#B75B2D" fill-opacity="0.22"/>
      <rect x="342" y="232" width="96" height="24" fill="#B75B2D" fill-opacity="0.22"/>
      <rect x="462" y="232" width="78" height="24" fill="#B75B2D" fill-opacity="0.22"/>
      <path d="M244 244H318" stroke="#B75B2D" stroke-width="2"/>
      <path d="M346 244H434" stroke="#B75B2D" stroke-width="2"/>
      <path d="M466 244H536" stroke="#B75B2D" stroke-width="2"/>
      <circle cx="670" cy="156" r="7" fill="#B75B2D"/>
      <circle cx="698" cy="148" r="7" fill="#B75B2D"/>
      <circle cx="726" cy="152" r="7" fill="#B75B2D"/>
    </g>

    <rect x="248" y="636" width="844" height="112" fill="#FBF6EE" stroke="#DDD2C3"/>
    <text x="272" y="664" font-size="12" font-weight="600" class="ink500">선택 노트</text>
    <text x="272" y="706" font-size="32" font-weight="700" class="ink900">A4</text>
    <text x="332" y="706" font-size="16" font-weight="400" class="ink700">시작이 약간 높고 끝에서 흔들립니다.</text>
    <line x1="768.5" y1="636" x2="768.5" y2="748" stroke="#DDD2C3"/>
    <text x="792" y="664" font-size="12" font-weight="600" class="ink500">시작</text>
    <text x="792" y="700" font-size="18" font-weight="700" class="ink900">+18c</text>
    <text x="860" y="664" font-size="12" font-weight="600" class="ink500">유지</text>
    <text x="860" y="700" font-size="18" font-weight="700" class="ink900">+9c</text>
    <text x="930" y="664" font-size="12" font-weight="600" class="ink500">타이밍</text>
    <text x="930" y="700" font-size="18" font-weight="700" class="ink900">38ms</text>
    <text x="1012" y="664" font-size="12" font-weight="600" class="ink500">신뢰도</text>
    <text x="1012" y="700" font-size="18" font-weight="700" class="ink900">0.92</text>
  </g>

  <g class="ui">
    <rect x="1120" y="76" width="320" height="716" fill="#FBF6EE"/>
    <line x1="1120.5" y1="76" x2="1120.5" y2="792" stroke="#DDD2C3"/>
    <text x="1144" y="112" font-size="20" font-weight="700" class="ink900">점수</text>
    <rect x="1144.5" y="132.5" width="132" height="84" fill="#FFFDF9" stroke="#DDD2C3"/>
    <text x="1160" y="156" font-size="12" font-weight="600" class="ink500">음정</text>
    <text x="1160" y="192" font-size="24" font-weight="700" class="ink900">86</text>
    <rect x="1288.5" y="132.5" width="132" height="84" fill="#FFFDF9" stroke="#DDD2C3"/>
    <text x="1304" y="156" font-size="12" font-weight="600" class="ink500">리듬</text>
    <text x="1304" y="192" font-size="24" font-weight="700" class="ink900">91</text>
    <rect x="1144.5" y="228.5" width="132" height="84" fill="#FFFDF9" stroke="#DDD2C3"/>
    <text x="1160" y="252" font-size="12" font-weight="600" class="ink500">화성</text>
    <text x="1160" y="288" font-size="24" font-weight="700" class="ink900">79</text>
    <rect x="1288.5" y="228.5" width="132" height="84" fill="#F2E7D8" stroke="#BDAF9A"/>
    <text x="1304" y="252" font-size="12" font-weight="600" class="ink500">총점</text>
    <text x="1304" y="288" font-size="24" font-weight="700" class="ink900">86</text>

    <line x1="1144" y1="340.5" x2="1416" y2="340.5" stroke="#DDD2C3"/>
    <text x="1144" y="372" font-size="20" font-weight="700" class="ink900">노트 상세</text>
    <text x="1144" y="404" font-size="24" font-weight="700" class="ink900">A4</text>
    <rect x="1198" y="386" width="46" height="22" rx="11" fill="#F7E7DE"/>
    <text x="1221" y="401" font-size="11" font-weight="600" text-anchor="middle" fill="#A5433F">높음</text>
    <text x="1144" y="434" font-size="14" class="ink700">start cents  +18</text>
    <text x="1144" y="458" font-size="14" class="ink700">sustain cents +9</text>
    <text x="1144" y="482" font-size="14" class="ink700">timing         38ms</text>
    <text x="1144" y="506" font-size="14" class="ink700">confidence     0.92</text>
    <text x="1144" y="538" font-size="14" class="ink700">시작을 조금 낮추고 끝을 더 붙잡아 주세요.</text>

    <line x1="1144" y1="570.5" x2="1416" y2="570.5" stroke="#DDD2C3"/>
    <text x="1144" y="602" font-size="20" font-weight="700" class="ink900">화성 기준</text>
    <text x="1144" y="632" font-size="14" class="ink700">mode        chord guided</text>
    <text x="1144" y="656" font-size="14" class="ink700">current     Am7</text>
    <text x="1144" y="680" font-size="14" class="ink700">fallback    melody only</text>
    <rect x="1144.5" y="700.5" width="126" height="36" fill="#FFFDF9" stroke="#BDAF9A"/>
    <text x="1207" y="724" font-size="14" font-weight="600" text-anchor="middle" class="ink900">코드 타임라인 편집</text>

    <line x1="1144" y1="760.5" x2="1416" y2="760.5" stroke="#DDD2C3"/>
    <text x="1144" y="792" font-size="20" font-weight="700" class="ink900">다음 작업</text>
    <rect x="1144.5" y="812.5" width="272" height="36" fill="#1B242D" stroke="#1B242D"/>
    <text x="1280" y="836" font-size="14" font-weight="600" text-anchor="middle" fill="#FFFDF9">멜로디 추출</text>
    <rect x="1144.5" y="858.5" width="272" height="36" fill="#FFFDF9" stroke="#BDAF9A"/>
    <text x="1280" y="882" font-size="14" font-weight="600" text-anchor="middle" class="ink900">사람 평가 묶음</text>
    <rect x="1144.5" y="904.5" width="272" height="36" fill="#FFFDF9" stroke="#BDAF9A"/>
    <text x="1280" y="928" font-size="14" font-weight="600" text-anchor="middle" class="ink900">편곡 후보 만들기</text>
  </g>

  <g class="ui">
    <text x="24" y="826" font-size="14" font-weight="600" fill="#FFFDF9">Play</text>
    <text x="76" y="826" font-size="14" font-weight="600" fill="#FFFDF9">Stop</text>
    <text x="128" y="826" font-size="14" font-weight="600" fill="#FFFDF9">Guide</text>
    <text x="188" y="826" font-size="14" font-weight="600" fill="#FFFDF9">Click</text>
    <text x="244" y="826" font-size="14" font-weight="600" fill="#FFFDF9">Count-in</text>
    <text x="1330" y="826" font-size="14" font-weight="600" fill="#FFFDF9">00:42 / 01:42</text>
    <line x1="0" y1="840.5" x2="1440" y2="840.5" stroke="#32404C"/>

    <text x="24" y="886" font-size="13" font-weight="600" fill="#D7C8B3">Guide</text>
    <rect x="88.5" y="864.5" width="240" height="28" fill="#232F3A" stroke="#32404C"/>
    <text x="360" y="886" font-size="13" font-weight="600" fill="#D7C8B3">선택 take</text>
    <rect x="438.5" y="864.5" width="240" height="28" fill="#232F3A" stroke="#32404C"/>
    <line x1="0" y1="900.5" x2="1440" y2="900.5" stroke="#32404C"/>

    <text x="24" y="950" font-size="13" font-weight="600" fill="#FFFDF9">guide</text>
    <text x="120" y="950" font-size="12" font-weight="600" fill="#9DAAB6">ready</text>
    <text x="176" y="950" font-size="12" font-weight="600" fill="#D7C8B3">M</text>
    <text x="204" y="950" font-size="12" font-weight="600" fill="#D7C8B3">S</text>
    <rect x="238" y="938" width="112" height="6" fill="#4C8FA6"/>
    <rect x="382" y="936" width="952" height="16" fill="#232F3A"/>
    <path d="M392 944H1316" stroke="#7E8E9A" stroke-width="2"/>

    <text x="24" y="988" font-size="13" font-weight="600" fill="#FFFDF9">take_04</text>
    <text x="120" y="988" font-size="12" font-weight="600" fill="#9BC8D6">selected</text>
    <text x="176" y="988" font-size="12" font-weight="600" fill="#D7C8B3">M</text>
    <text x="204" y="988" font-size="12" font-weight="600" fill="#D7C8B3">S</text>
    <rect x="238" y="976" width="112" height="6" fill="#4C8FA6"/>
    <rect x="382" y="974" width="952" height="16" fill="#232F3A"/>
    <path d="M392 982C468 972 548 986 620 979C694 972 770 984 840 980C930 974 1016 990 1112 982C1186 976 1244 986 1316 978" stroke="#4C8FA6" stroke-width="2"/>
  </g>

  <g class="ui">
    <rect x="0" y="1012" width="1440" height="48" fill="#FFFDF9"/>
    <line x1="0" y1="1060.5" x2="1440" y2="1060.5" stroke="#DDD2C3"/>
    <g transform="translate(24 1022)">
      <text x="0" y="18" font-size="14" font-weight="700" class="ink900">장치</text>
      <text x="92" y="18" font-size="14" font-weight="600" class="ink500">가이드</text>
      <text x="184" y="18" font-size="14" font-weight="600" class="ink500">녹음</text>
      <text x="276" y="18" font-size="14" font-weight="600" class="ink500">분석</text>
      <text x="368" y="18" font-size="14" font-weight="600" class="ink500">멜로디</text>
      <text x="460" y="18" font-size="14" font-weight="600" class="ink500">편곡</text>
      <text x="552" y="18" font-size="14" font-weight="600" class="ink500">믹스다운</text>
      <text x="676" y="18" font-size="14" font-weight="600" class="ink500">버전</text>
      <text x="760" y="18" font-size="14" font-weight="600" class="ink500">공유</text>
      <line x1="0" y1="36.5" x2="42" y2="36.5" stroke="#B75B2D" stroke-width="2"/>
    </g>

    <text x="24" y="1108" font-size="20" font-weight="700" class="ink900">장치</text>
    <line x1="704.5" y1="1084" x2="704.5" y2="1608" stroke="#DDD2C3"/>
    <text x="24" y="1142" font-size="12" font-weight="600" class="ink500">입력 장치</text>
    <rect x="24.5" y="1156.5" width="280" height="36" fill="#FFFDF9" stroke="#BDAF9A"/>
    <text x="40" y="1180" font-size="14" class="ink900">AT2020 USB</text>
    <text x="24" y="1228" font-size="12" font-weight="600" class="ink500">출력 라우트</text>
    <rect x="24.5" y="1242.5" width="280" height="36" fill="#FFFDF9" stroke="#BDAF9A"/>
    <text x="40" y="1266" font-size="14" class="ink900">기본 헤드폰</text>
    <rect x="24.5" y="1310.5" width="92" height="36" fill="#1B242D" stroke="#1B242D"/>
    <text x="70" y="1334" font-size="14" font-weight="600" text-anchor="middle" fill="#FFFDF9">권한 요청</text>
    <rect x="126.5" y="1310.5" width="96" height="36" fill="#FFFDF9" stroke="#BDAF9A"/>
    <text x="174" y="1334" font-size="14" font-weight="600" text-anchor="middle" class="ink900">목록 새로고침</text>
    <rect x="232.5" y="1310.5" width="72" height="36" fill="#FFFDF9" stroke="#BDAF9A"/>
    <text x="268" y="1334" font-size="14" font-weight="600" text-anchor="middle" class="ink900">장치 저장</text>

    <text x="736" y="1108" font-size="20" font-weight="700" class="ink900">저장 프로필</text>
    <rect x="736.5" y="1132.5" width="680" height="476" fill="#FFFDF9" stroke="#DDD2C3"/>
    <text x="760" y="1172" font-size="12" font-weight="600" class="ink500">profile</text>
    <text x="760" y="1206" font-size="32" font-weight="700" class="ink900">Choir room USB capture</text>
    <text x="760" y="1246" font-size="16" class="ink700">sample rate 48kHz / mono / latency stable / monitoring safe</text>
    <line x1="760" y1="1276.5" x2="1392" y2="1276.5" stroke="#DDD2C3"/>
    <text x="760" y="1320" font-size="14" class="ink700">최근 저장일 2026.04.16 09:42</text>
    <text x="760" y="1350" font-size="14" class="ink700">권한 상태 허용됨</text>
    <text x="760" y="1380" font-size="14" class="ink700">입력 감도 기준 정상</text>
    <text x="760" y="1410" font-size="14" class="ink700">모니터링 경로 직접 출력</text>
  </g>
</svg>
